<svg xmlns="http://www.w3.org/2000/svg" version="1.1" xmlns:xlink="http://www.w3.org/1999/xlink" xmlns:svgjs="http://svgjs.dev/svgjs" viewBox="0 0 800 800"><defs><linearGradient x1="50%" y1="0%" x2="50%" y2="100%" id="ffflurry-grad" gradientTransform="rotate(270)"><stop stop-color="#1d1d1d" stop-opacity="1" offset="0%"></stop><stop stop-color="#339fde" stop-opacity="1" offset="45%"></stop><stop stop-color="#a91b75" stop-opacity="1" offset="100%"></stop></linearGradient></defs><rect width="100%" height="100%" fill="#1d1d1d"></rect><g fill="url(#ffflurry-grad)"><rect width="36" height="3" x="234" y="158.5" rx="1.5" transform="rotate(45, 252, 160)" opacity="0.73"></rect><rect width="177" height="3" x="197.5" y="576.5" rx="1.5" transform="rotate(45, 286, 578)" opacity="0.90"></rect><rect width="480" height="3" x="88" y="224.5" rx="1.5" transform="rotate(45, 328, 226)" opacity="0.82"></rect><rect width="185" height="3" x="366.5" y="534.5" rx="1.5" transform="rotate(45, 459, 536)" opacity="0.75"></rect><rect width="285" height="3" x="268.5" y="246.5" rx="1.5" transform="rotate(45, 411, 248)" opacity="0.44"></rect><rect width="231" height="3" x="371.5" y="387.5" rx="1.5" transform="rotate(45, 487, 389)" opacity="0.46"></rect><rect width="524" height="3" x="6" y="693.5" rx="1.5" transform="rotate(45, 268, 695)" opacity="0.91"></rect><rect width="76" height="3" x="262" y="405.5" rx="1.5" transform="rotate(45, 300, 407)" opacity="0.99"></rect><rect width="107" height="3" x="85.5" y="42.5" rx="1.5" transform="rotate(45, 139, 44)" opacity="0.82"></rect><rect width="536" height="3" x="-131" y="753.5" rx="1.5" transform="rotate(45, 137, 755)" opacity="0.08"></rect><rect width="420" height="3" x="158" y="167.5" rx="1.5" transform="rotate(45, 368, 169)" opacity="0.98"></rect><rect width="138" height="3" x="306" y="764.5" rx="1.5" transform="rotate(45, 375, 766)" opacity="0.66"></rect><rect width="186" height="3" x="287" y="29.5" rx="1.5" transform="rotate(45, 380, 31)" opacity="0.67"></rect><rect width="401" height="3" x="307.5" y="298.5" rx="1.5" transform="rotate(45, 508, 300)" opacity="0.87"></rect><rect width="181" height="3" x="120.5" y="354.5" rx="1.5" transform="rotate(45, 211, 356)" opacity="0.51"></rect><rect width="152" height="3" x="688" y="498.5" rx="1.5" transform="rotate(45, 764, 500)" opacity="0.89"></rect><rect width="117" height="3" x="154.5" y="463.5" rx="1.5" transform="rotate(45, 213, 465)" opacity="0.45"></rect><rect width="411" height="3" x="563.5" y="637.5" rx="1.5" transform="rotate(45, 769, 639)" opacity="0.34"></rect><rect width="586" height="3" x="-144" y="648.5" rx="1.5" transform="rotate(45, 149, 650)" opacity="0.63"></rect><rect width="540" height="3" x="357" y="85.5" rx="1.5" transform="rotate(45, 627, 87)" opacity="0.60"></rect><rect width="424" height="3" x="213" y="620.5" rx="1.5" transform="rotate(45, 425, 622)" opacity="0.53"></rect><rect width="346" height="3" x="-124" y="38.5" rx="1.5" transform="rotate(45, 49, 40)" opacity="0.57"></rect><rect width="352" height="3" x="126" y="30.5" rx="1.5" transform="rotate(45, 302, 32)" opacity="0.12"></rect><rect width="182" height="3" x="641" y="29.5" rx="1.5" transform="rotate(45, 732, 31)" opacity="0.11"></rect><rect width="609" height="3" x="-206.5" y="544.5" rx="1.5" transform="rotate(45, 98, 546)" opacity="0.08"></rect><rect width="200" height="3" x="45" y="283.5" rx="1.5" transform="rotate(45, 145, 285)" opacity="0.19"></rect><rect width="459" height="3" x="177.5" y="699.5" rx="1.5" transform="rotate(45, 407, 701)" opacity="0.91"></rect><rect width="308" height="3" x="-32" y="169.5" rx="1.5" transform="rotate(45, 122, 171)" opacity="0.83"></rect><rect width="420" height="3" x="144" y="599.5" rx="1.5" transform="rotate(45, 354, 601)" opacity="0.75"></rect><rect width="512" height="3" x="-224" y="215.5" rx="1.5" transform="rotate(45, 32, 217)" opacity="0.43"></rect><rect width="481" height="3" x="216.5" y="42.5" rx="1.5" transform="rotate(45, 457, 44)" opacity="0.19"></rect><rect width="520" height="3" x="-211" y="121.5" rx="1.5" transform="rotate(45, 49, 123)" opacity="0.68"></rect><rect width="254" height="3" x="562" y="143.5" rx="1.5" transform="rotate(45, 689, 145)" opacity="0.96"></rect><rect width="277" height="3" x="426.5" y="488.5" rx="1.5" transform="rotate(45, 565, 490)" opacity="0.91"></rect><rect width="127" height="3" x="376.5" y="119.5" rx="1.5" transform="rotate(45, 440, 121)" opacity="0.59"></rect><rect width="459" height="3" x="303.5" y="121.5" rx="1.5" transform="rotate(45, 533, 123)" opacity="0.33"></rect><rect width="585" height="3" x="56.5" y="498.5" rx="1.5" transform="rotate(45, 349, 500)" opacity="0.27"></rect><rect width="57" height="3" x="669.5" y="634.5" rx="1.5" transform="rotate(45, 698, 636)" opacity="0.63"></rect><rect width="123" height="3" x="442.5" y="619.5" rx="1.5" transform="rotate(45, 504, 621)" opacity="0.27"></rect><rect width="523" height="3" x="333.5" y="377.5" rx="1.5" transform="rotate(45, 595, 379)" opacity="0.62"></rect><rect width="480" height="3" x="217" y="464.5" rx="1.5" transform="rotate(45, 457, 466)" opacity="0.47"></rect><rect width="358" height="3" x="403" y="586.5" rx="1.5" transform="rotate(45, 582, 588)" opacity="0.52"></rect><rect width="150" height="3" x="457" y="41.5" rx="1.5" transform="rotate(45, 532, 43)" opacity="0.30"></rect><rect width="285" height="3" x="634.5" y="357.5" rx="1.5" transform="rotate(45, 777, 359)" opacity="0.12"></rect><rect width="170" height="3" x="545" y="19.5" rx="1.5" transform="rotate(45, 630, 21)" opacity="0.96"></rect><rect width="77" height="3" x="594.5" y="264.5" rx="1.5" transform="rotate(45, 633, 266)" opacity="0.76"></rect><rect width="196" height="3" x="666" y="92.5" rx="1.5" transform="rotate(45, 764, 94)" opacity="0.82"></rect><rect width="347" height="3" x="-131.5" y="475.5" rx="1.5" transform="rotate(45, 42, 477)" opacity="0.32"></rect><rect width="481" height="3" x="-128.5" y="386.5" rx="1.5" transform="rotate(45, 112, 388)" opacity="0.64"></rect><rect width="640" height="3" x="357" y="542.5" rx="1.5" transform="rotate(45, 677, 544)" opacity="0.67"></rect><rect width="157" height="3" x="631.5" y="305.5" rx="1.5" transform="rotate(45, 710, 307)" opacity="0.95"></rect><rect width="324" height="3" x="-83" y="265.5" rx="1.5" transform="rotate(45, 79, 267)" opacity="0.23"></rect><rect width="132" height="3" x="143" y="571.5" rx="1.5" transform="rotate(45, 209, 573)" opacity="0.78"></rect><rect width="573" height="3" x="101.5" y="418.5" rx="1.5" transform="rotate(45, 388, 420)" opacity="0.41"></rect><rect width="884" height="3" x="-400" y="695.5" rx="1.5" transform="rotate(45, 42, 697)" opacity="0.44"></rect><rect width="24" height="3" x="658" y="34.5" rx="1.5" transform="rotate(45, 670, 36)" opacity="0.38"></rect><rect width="157" height="3" x="319.5" y="331.5" rx="1.5" transform="rotate(45, 398, 333)" opacity="0.53"></rect><rect width="154" height="3" x="635" y="749.5" rx="1.5" transform="rotate(45, 712, 751)" opacity="0.11"></rect><rect width="315" height="3" x="135.5" y="105.5" rx="1.5" transform="rotate(45, 293, 107)" opacity="0.55"></rect><rect width="356" height="3" x="575" y="217.5" rx="1.5" transform="rotate(45, 753, 219)" opacity="0.31"></rect><rect width="389" height="3" x="341.5" y="743.5" rx="1.5" transform="rotate(45, 536, 745)" opacity="0.52"></rect><rect width="123" height="3" x="613.5" y="451.5" rx="1.5" transform="rotate(45, 675, 453)" opacity="0.84"></rect><rect width="297" height="3" x="109.5" y="217.5" rx="1.5" transform="rotate(45, 258, 219)" opacity="0.91"></rect><rect width="147" height="3" x="-41.5" y="339.5" rx="1.5" transform="rotate(45, 32, 341)" opacity="0.71"></rect><rect width="258" height="3" x="59" y="219.5" rx="1.5" transform="rotate(45, 188, 221)" opacity="0.82"></rect><rect width="121" height="3" x="191.5" y="769.5" rx="1.5" transform="rotate(45, 252, 771)" opacity="0.68"></rect><rect width="419" height="3" x="503.5" y="386.5" rx="1.5" transform="rotate(45, 713, 388)" opacity="0.23"></rect><rect width="173" height="3" x="524.5" y="169.5" rx="1.5" transform="rotate(45, 611, 171)" opacity="0.83"></rect><rect width="150" height="3" x="170" y="279.5" rx="1.5" transform="rotate(45, 245, 281)" opacity="0.27"></rect><rect width="449" height="3" x="138.5" y="94.5" rx="1.5" transform="rotate(45, 363, 96)" opacity="0.28"></rect><rect width="456" height="3" x="1" y="39.5" rx="1.5" transform="rotate(45, 229, 41)" opacity="0.49"></rect><rect width="316" height="3" x="429" y="29.5" rx="1.5" transform="rotate(45, 587, 31)" opacity="0.69"></rect><rect width="520" height="3" x="-73" y="109.5" rx="1.5" transform="rotate(45, 187, 111)" opacity="0.98"></rect><rect width="480" height="3" x="75" y="307.5" rx="1.5" transform="rotate(45, 315, 309)" opacity="0.78"></rect><rect width="629" height="3" x="305.5" y="668.5" rx="1.5" transform="rotate(45, 620, 670)" opacity="0.45"></rect><rect width="410" height="3" x="261" y="192.5" rx="1.5" transform="rotate(45, 466, 194)" opacity="0.13"></rect><rect width="330" height="3" x="378" y="219.5" rx="1.5" transform="rotate(45, 543, 221)" opacity="0.15"></rect></g></svg>