<svg xmlns="http://www.w3.org/2000/svg" version="1.1" xmlns:xlink="http://www.w3.org/1999/xlink" xmlns:svgjs="http://svgjs.com/svgjs" width="1440" height="560" preserveAspectRatio="none" viewBox="0 0 1440 560"><g mask="url(&quot;#SvgjsMask1008&quot;)" fill="none"><rect width="1440" height="560" x="0" y="0" fill="rgba(29, 29, 29, 1)"></rect><path d="M-104.8 358.09L-104.8 358.09" stroke="rgba(51, 159, 222, 1)" stroke-width="1.5"></path><path d="M-104.8 358.09L47.57 391.94" stroke="rgba(51, 159, 222, 1)" stroke-width="1.5"></path><path d="M-104.8 358.09L-71.73 534.77" stroke="rgba(51, 159, 222, 1)" stroke-width="1.5"></path><path d="M-104.8 358.09L93.6 509.07" stroke="rgba(51, 159, 222, 1)" stroke-width="1.5"></path><path d="M-104.8 358.09L-86.15 678.62" stroke="rgba(51, 159, 222, 1)" stroke-width="1.5"></path><path d="M-71.73 534.77L-71.73 534.77" stroke="rgba(51, 159, 222, 1)" stroke-width="1.5"></path><path d="M-71.73 534.77L-86.15 678.62" stroke="rgba(51, 159, 222, 1)" stroke-width="1.5"></path><path d="M-71.73 534.77L93.6 509.07" stroke="rgba(51, 159, 222, 1)" stroke-width="1.5"></path><path d="M-71.73 534.77L47.57 391.94" stroke="rgba(51, 159, 222, 1)" stroke-width="1.5"></path><path d="M-71.73 534.77L109.02 696" stroke="rgba(51, 159, 222, 1)" stroke-width="1.5"></path><path d="M-86.15 678.62L-86.15 678.62" stroke="rgba(51, 159, 222, 1)" stroke-width="1.5"></path><path d="M-86.15 678.62L109.02 696" stroke="rgba(51, 159, 222, 1)" stroke-width="1.5"></path><path d="M47.57 391.94L47.57 391.94" stroke="rgba(51, 159, 222, 1)" stroke-width="1.5"></path><path d="M47.57 391.94L93.6 509.07" stroke="rgba(51, 159, 222, 1)" stroke-width="1.5"></path><path d="M47.57 391.94L217.93 344.7" stroke="rgba(51, 159, 222, 1)" stroke-width="1.5"></path><path d="M47.57 391.94L109.02 696" stroke="rgba(51, 159, 222, 1)" stroke-width="1.5"></path><path d="M93.6 509.07L93.6 509.07" stroke="rgba(51, 159, 222, 1)" stroke-width="1.5"></path><path d="M109.02 696L109.02 696" stroke="rgba(51, 159, 222, 1)" stroke-width="1.5"></path><path d="M109.02 696L193.7 695.84" stroke="rgba(51, 159, 222, 1)" stroke-width="1.5"></path><path d="M109.02 696L93.6 509.07" stroke="rgba(51, 159, 222, 1)" stroke-width="1.5"></path><path d="M109.02 696L380.24 672.48" stroke="rgba(51, 159, 222, 1)" stroke-width="1.5"></path><path d="M109.02 696L370.09 549.22" stroke="rgba(51, 159, 222, 1)" stroke-width="1.5"></path><path d="M217.93 344.7L217.93 344.7" stroke="rgba(51, 159, 222, 1)" stroke-width="1.5"></path><path d="M217.93 344.7L397 360.48" stroke="rgba(51, 159, 222, 1)" stroke-width="1.5"></path><path d="M217.93 344.7L93.6 509.07" stroke="rgba(51, 159, 222, 1)" stroke-width="1.5"></path><path d="M217.93 344.7L370.09 549.22" stroke="rgba(51, 159, 222, 1)" stroke-width="1.5"></path><path d="M193.7 695.84L193.7 695.84" stroke="rgba(51, 159, 222, 1)" stroke-width="1.5"></path><path d="M193.7 695.84L380.24 672.48" stroke="rgba(51, 159, 222, 1)" stroke-width="1.5"></path><path d="M193.7 695.84L93.6 509.07" stroke="rgba(51, 159, 222, 1)" stroke-width="1.5"></path><path d="M193.7 695.84L370.09 549.22" stroke="rgba(51, 159, 222, 1)" stroke-width="1.5"></path><path d="M193.7 695.84L-86.15 678.62" stroke="rgba(51, 159, 222, 1)" stroke-width="1.5"></path><path d="M397 360.48L397 360.48" stroke="rgba(51, 159, 222, 1)" stroke-width="1.5"></path><path d="M397 360.48L549.67 402.19" stroke="rgba(51, 159, 222, 1)" stroke-width="1.5"></path><path d="M397 360.48L370.09 549.22" stroke="rgba(51, 159, 222, 1)" stroke-width="1.5"></path><path d="M397 360.48L535.03 549.77" stroke="rgba(51, 159, 222, 1)" stroke-width="1.5"></path><path d="M397 360.48L643.4 256.46" stroke="rgba(51, 159, 222, 1)" stroke-width="1.5"></path><path d="M370.09 549.22L370.09 549.22" stroke="rgba(51, 159, 222, 1)" stroke-width="1.5"></path><path d="M370.09 549.22L380.24 672.48" stroke="rgba(51, 159, 222, 1)" stroke-width="1.5"></path><path d="M370.09 549.22L535.03 549.77" stroke="rgba(51, 159, 222, 1)" stroke-width="1.5"></path><path d="M370.09 549.22L549.67 402.19" stroke="rgba(51, 159, 222, 1)" stroke-width="1.5"></path><path d="M380.24 672.48L380.24 672.48" stroke="rgba(51, 159, 222, 1)" stroke-width="1.5"></path><path d="M380.24 672.48L535.03 549.77" stroke="rgba(51, 159, 222, 1)" stroke-width="1.5"></path><path d="M380.24 672.48L657.9 687.53" stroke="rgba(51, 159, 222, 1)" stroke-width="1.5"></path><path d="M549.67 402.19L549.67 402.19" stroke="rgba(51, 159, 222, 1)" stroke-width="1.5"></path><path d="M549.67 402.19L535.03 549.77" stroke="rgba(51, 159, 222, 1)" stroke-width="1.5"></path><path d="M549.67 402.19L663.2 517.71" stroke="rgba(51, 159, 222, 1)" stroke-width="1.5"></path><path d="M549.67 402.19L711.5 380.44" stroke="rgba(51, 159, 222, 1)" stroke-width="1.5"></path><path d="M535.03 549.77L535.03 549.77" stroke="rgba(51, 159, 222, 1)" stroke-width="1.5"></path><path d="M535.03 549.77L663.2 517.71" stroke="rgba(51, 159, 222, 1)" stroke-width="1.5"></path><path d="M643.4 256.46L643.4 256.46" stroke="rgba(51, 159, 222, 1)" stroke-width="1.5"></path><path d="M643.4 256.46L711.5 380.44" stroke="rgba(51, 159, 222, 1)" stroke-width="1.5"></path><path d="M643.4 256.46L796.87 209.97" stroke="rgba(51, 159, 222, 1)" stroke-width="1.5"></path><path d="M711.5 380.44L711.5 380.44" stroke="rgba(51, 159, 222, 1)" stroke-width="1.5"></path><path d="M711.5 380.44L845.91 382.45" stroke="rgba(51, 159, 222, 1)" stroke-width="1.5"></path><path d="M663.2 517.71L663.2 517.71" stroke="rgba(51, 159, 222, 1)" stroke-width="1.5"></path><path d="M663.2 517.71L711.5 380.44" stroke="rgba(51, 159, 222, 1)" stroke-width="1.5"></path><path d="M663.2 517.71L830.1 513.95" stroke="rgba(51, 159, 222, 1)" stroke-width="1.5"></path><path d="M657.9 687.53L657.9 687.53" stroke="rgba(51, 159, 222, 1)" stroke-width="1.5"></path><path d="M657.9 687.53L816.96 701.37" stroke="rgba(51, 159, 222, 1)" stroke-width="1.5"></path><path d="M657.9 687.53L663.2 517.71" stroke="rgba(51, 159, 222, 1)" stroke-width="1.5"></path><path d="M657.9 687.53L535.03 549.77" stroke="rgba(51, 159, 222, 1)" stroke-width="1.5"></path><path d="M657.9 687.53L830.1 513.95" stroke="rgba(51, 159, 222, 1)" stroke-width="1.5"></path><path d="M860.33 87.78L860.33 87.78" stroke="rgba(51, 159, 222, 1)" stroke-width="1.5"></path><path d="M860.33 87.78L796.87 209.97" stroke="rgba(51, 159, 222, 1)" stroke-width="1.5"></path><path d="M860.33 87.78L1010.76 64.2" stroke="rgba(51, 159, 222, 1)" stroke-width="1.5"></path><path d="M796.87 209.97L796.87 209.97" stroke="rgba(51, 159, 222, 1)" stroke-width="1.5"></path><path d="M796.87 209.97L845.91 382.45" stroke="rgba(51, 159, 222, 1)" stroke-width="1.5"></path><path d="M796.87 209.97L711.5 380.44" stroke="rgba(51, 159, 222, 1)" stroke-width="1.5"></path><path d="M845.91 382.45L845.91 382.45" stroke="rgba(51, 159, 222, 1)" stroke-width="1.5"></path><path d="M845.91 382.45L830.1 513.95" stroke="rgba(51, 159, 222, 1)" stroke-width="1.5"></path><path d="M845.91 382.45L989.35 391.91" stroke="rgba(51, 159, 222, 1)" stroke-width="1.5"></path><path d="M830.1 513.95L830.1 513.95" stroke="rgba(51, 159, 222, 1)" stroke-width="1.5"></path><path d="M830.1 513.95L997.87 535.98" stroke="rgba(51, 159, 222, 1)" stroke-width="1.5"></path><path d="M830.1 513.95L711.5 380.44" stroke="rgba(51, 159, 222, 1)" stroke-width="1.5"></path><path d="M816.96 701.37L816.96 701.37" stroke="rgba(51, 159, 222, 1)" stroke-width="1.5"></path><path d="M816.96 701.37L953.85 651.06" stroke="rgba(51, 159, 222, 1)" stroke-width="1.5"></path><path d="M978.53 -52.04L978.53 -52.04" stroke="rgba(51, 159, 222, 1)" stroke-width="1.5"></path><path d="M978.53 -52.04L1010.76 64.2" stroke="rgba(51, 159, 222, 1)" stroke-width="1.5"></path><path d="M978.53 -52.04L1112.15 -70.22" stroke="rgba(51, 159, 222, 1)" stroke-width="1.5"></path><path d="M978.53 -52.04L1097.73 64.96" stroke="rgba(51, 159, 222, 1)" stroke-width="1.5"></path><path d="M1010.76 64.2L1010.76 64.2" stroke="rgba(51, 159, 222, 1)" stroke-width="1.5"></path><path d="M1010.76 64.2L1097.73 64.96" stroke="rgba(51, 159, 222, 1)" stroke-width="1.5"></path><path d="M1010.76 64.2L995.41 215.28" stroke="rgba(51, 159, 222, 1)" stroke-width="1.5"></path><path d="M995.41 215.28L995.41 215.28" stroke="rgba(51, 159, 222, 1)" stroke-width="1.5"></path><path d="M995.41 215.28L1122.23 238.15" stroke="rgba(51, 159, 222, 1)" stroke-width="1.5"></path><path d="M995.41 215.28L989.35 391.91" stroke="rgba(51, 159, 222, 1)" stroke-width="1.5"></path><path d="M989.35 391.91L989.35 391.91" stroke="rgba(51, 159, 222, 1)" stroke-width="1.5"></path><path d="M989.35 391.91L997.87 535.98" stroke="rgba(51, 159, 222, 1)" stroke-width="1.5"></path><path d="M989.35 391.91L830.1 513.95" stroke="rgba(51, 159, 222, 1)" stroke-width="1.5"></path><path d="M989.35 391.91L1122.23 238.15" stroke="rgba(51, 159, 222, 1)" stroke-width="1.5"></path><path d="M997.87 535.98L997.87 535.98" stroke="rgba(51, 159, 222, 1)" stroke-width="1.5"></path><path d="M997.87 535.98L953.85 651.06" stroke="rgba(51, 159, 222, 1)" stroke-width="1.5"></path><path d="M997.87 535.98L1112 660.16" stroke="rgba(51, 159, 222, 1)" stroke-width="1.5"></path><path d="M997.87 535.98L845.91 382.45" stroke="rgba(51, 159, 222, 1)" stroke-width="1.5"></path><path d="M997.87 535.98L816.96 701.37" stroke="rgba(51, 159, 222, 1)" stroke-width="1.5"></path><path d="M953.85 651.06L953.85 651.06" stroke="rgba(51, 159, 222, 1)" stroke-width="1.5"></path><path d="M953.85 651.06L1112 660.16" stroke="rgba(51, 159, 222, 1)" stroke-width="1.5"></path><path d="M953.85 651.06L830.1 513.95" stroke="rgba(51, 159, 222, 1)" stroke-width="1.5"></path><path d="M953.85 651.06L989.35 391.91" stroke="rgba(51, 159, 222, 1)" stroke-width="1.5"></path><path d="M1112.15 -70.22L1112.15 -70.22" stroke="rgba(51, 159, 222, 1)" stroke-width="1.5"></path><path d="M1112.15 -70.22L1240.66 -76.16" stroke="rgba(51, 159, 222, 1)" stroke-width="1.5"></path><path d="M1112.15 -70.22L1097.73 64.96" stroke="rgba(51, 159, 222, 1)" stroke-width="1.5"></path><path d="M1112.15 -70.22L1010.76 64.2" stroke="rgba(51, 159, 222, 1)" stroke-width="1.5"></path><path d="M1112.15 -70.22L1261.12 77.74" stroke="rgba(51, 159, 222, 1)" stroke-width="1.5"></path><path d="M1112.15 -70.22L860.33 87.78" stroke="rgba(51, 159, 222, 1)" stroke-width="1.5"></path><path d="M1097.73 64.96L1097.73 64.96" stroke="rgba(51, 159, 222, 1)" stroke-width="1.5"></path><path d="M1097.73 64.96L1261.12 77.74" stroke="rgba(51, 159, 222, 1)" stroke-width="1.5"></path><path d="M1097.73 64.96L1122.23 238.15" stroke="rgba(51, 159, 222, 1)" stroke-width="1.5"></path><path d="M1122.23 238.15L1122.23 238.15" stroke="rgba(51, 159, 222, 1)" stroke-width="1.5"></path><path d="M1122.23 238.15L1254.48 192.03" stroke="rgba(51, 159, 222, 1)" stroke-width="1.5"></path><path d="M1112 660.16L1112 660.16" stroke="rgba(51, 159, 222, 1)" stroke-width="1.5"></path><path d="M1112 660.16L1265.88 665.63" stroke="rgba(51, 159, 222, 1)" stroke-width="1.5"></path><path d="M1112 660.16L1269.28 512.96" stroke="rgba(51, 159, 222, 1)" stroke-width="1.5"></path><path d="M1240.66 -76.16L1240.66 -76.16" stroke="rgba(51, 159, 222, 1)" stroke-width="1.5"></path><path d="M1240.66 -76.16L1261.12 77.74" stroke="rgba(51, 159, 222, 1)" stroke-width="1.5"></path><path d="M1240.66 -76.16L1097.73 64.96" stroke="rgba(51, 159, 222, 1)" stroke-width="1.5"></path><path d="M1261.12 77.74L1261.12 77.74" stroke="rgba(51, 159, 222, 1)" stroke-width="1.5"></path><path d="M1261.12 77.74L1254.48 192.03" stroke="rgba(51, 159, 222, 1)" stroke-width="1.5"></path><path d="M1261.12 77.74L1424.75 88.76" stroke="rgba(51, 159, 222, 1)" stroke-width="1.5"></path><path d="M1261.12 77.74L1421.11 200.12" stroke="rgba(51, 159, 222, 1)" stroke-width="1.5"></path><path d="M1254.48 192.03L1254.48 192.03" stroke="rgba(51, 159, 222, 1)" stroke-width="1.5"></path><path d="M1254.48 192.03L1421.11 200.12" stroke="rgba(51, 159, 222, 1)" stroke-width="1.5"></path><path d="M1254.48 192.03L1424.75 88.76" stroke="rgba(51, 159, 222, 1)" stroke-width="1.5"></path><path d="M1269.28 512.96L1269.28 512.96" stroke="rgba(51, 159, 222, 1)" stroke-width="1.5"></path><path d="M1269.28 512.96L1265.88 665.63" stroke="rgba(51, 159, 222, 1)" stroke-width="1.5"></path><path d="M1269.28 512.96L1441.03 561.68" stroke="rgba(51, 159, 222, 1)" stroke-width="1.5"></path><path d="M1269.28 512.96L1424.25 406.46" stroke="rgba(51, 159, 222, 1)" stroke-width="1.5"></path><path d="M1269.28 512.96L1458.2 639.84" stroke="rgba(51, 159, 222, 1)" stroke-width="1.5"></path><path d="M1269.28 512.96L997.87 535.98" stroke="rgba(51, 159, 222, 1)" stroke-width="1.5"></path><path d="M1265.88 665.63L1265.88 665.63" stroke="rgba(51, 159, 222, 1)" stroke-width="1.5"></path><path d="M1265.88 665.63L1458.2 639.84" stroke="rgba(51, 159, 222, 1)" stroke-width="1.5"></path><path d="M1265.88 665.63L1441.03 561.68" stroke="rgba(51, 159, 222, 1)" stroke-width="1.5"></path><path d="M1455.52 -51.28L1455.52 -51.28" stroke="rgba(51, 159, 222, 1)" stroke-width="1.5"></path><path d="M1455.52 -51.28L1545.06 -98.04" stroke="rgba(51, 159, 222, 1)" stroke-width="1.5"></path><path d="M1455.52 -51.28L1424.75 88.76" stroke="rgba(51, 159, 222, 1)" stroke-width="1.5"></path><path d="M1455.52 -51.28L1586.58 102.21" stroke="rgba(51, 159, 222, 1)" stroke-width="1.5"></path><path d="M1455.52 -51.28L1240.66 -76.16" stroke="rgba(51, 159, 222, 1)" stroke-width="1.5"></path><path d="M1424.75 88.76L1424.75 88.76" stroke="rgba(51, 159, 222, 1)" stroke-width="1.5"></path><path d="M1424.75 88.76L1421.11 200.12" stroke="rgba(51, 159, 222, 1)" stroke-width="1.5"></path><path d="M1424.75 88.76L1586.58 102.21" stroke="rgba(51, 159, 222, 1)" stroke-width="1.5"></path><path d="M1421.11 200.12L1421.11 200.12" stroke="rgba(51, 159, 222, 1)" stroke-width="1.5"></path><path d="M1421.11 200.12L1574.18 222.12" stroke="rgba(51, 159, 222, 1)" stroke-width="1.5"></path><path d="M1424.25 406.46L1424.25 406.46" stroke="rgba(51, 159, 222, 1)" stroke-width="1.5"></path><path d="M1424.25 406.46L1441.03 561.68" stroke="rgba(51, 159, 222, 1)" stroke-width="1.5"></path><path d="M1424.25 406.46L1595.21 385.63" stroke="rgba(51, 159, 222, 1)" stroke-width="1.5"></path><path d="M1424.25 406.46L1555.36 552.62" stroke="rgba(51, 159, 222, 1)" stroke-width="1.5"></path><path d="M1424.25 406.46L1421.11 200.12" stroke="rgba(51, 159, 222, 1)" stroke-width="1.5"></path><path d="M1441.03 561.68L1441.03 561.68" stroke="rgba(51, 159, 222, 1)" stroke-width="1.5"></path><path d="M1441.03 561.68L1458.2 639.84" stroke="rgba(51, 159, 222, 1)" stroke-width="1.5"></path><path d="M1441.03 561.68L1555.36 552.62" stroke="rgba(51, 159, 222, 1)" stroke-width="1.5"></path><path d="M1441.03 561.68L1599.84 675.05" stroke="rgba(51, 159, 222, 1)" stroke-width="1.5"></path><path d="M1458.2 639.84L1458.2 639.84" stroke="rgba(51, 159, 222, 1)" stroke-width="1.5"></path><path d="M1458.2 639.84L1555.36 552.62" stroke="rgba(51, 159, 222, 1)" stroke-width="1.5"></path><path d="M1458.2 639.84L1599.84 675.05" stroke="rgba(51, 159, 222, 1)" stroke-width="1.5"></path><path d="M1545.06 -98.04L1545.06 -98.04" stroke="rgba(51, 159, 222, 1)" stroke-width="1.5"></path><path d="M1545.06 -98.04L1586.58 102.21" stroke="rgba(51, 159, 222, 1)" stroke-width="1.5"></path><path d="M1545.06 -98.04L1424.75 88.76" stroke="rgba(51, 159, 222, 1)" stroke-width="1.5"></path><path d="M1545.06 -98.04L1240.66 -76.16" stroke="rgba(51, 159, 222, 1)" stroke-width="1.5"></path><path d="M1545.06 -98.04L1574.18 222.12" stroke="rgba(51, 159, 222, 1)" stroke-width="1.5"></path><path d="M1545.06 -98.04L1421.11 200.12" stroke="rgba(51, 159, 222, 1)" stroke-width="1.5"></path><path d="M1586.58 102.21L1586.58 102.21" stroke="rgba(51, 159, 222, 1)" stroke-width="1.5"></path><path d="M1586.58 102.21L1574.18 222.12" stroke="rgba(51, 159, 222, 1)" stroke-width="1.5"></path><path d="M1586.58 102.21L1421.11 200.12" stroke="rgba(51, 159, 222, 1)" stroke-width="1.5"></path><path d="M1574.18 222.12L1574.18 222.12" stroke="rgba(51, 159, 222, 1)" stroke-width="1.5"></path><path d="M1595.21 385.63L1595.21 385.63" stroke="rgba(51, 159, 222, 1)" stroke-width="1.5"></path><path d="M1595.21 385.63L1574.18 222.12" stroke="rgba(51, 159, 222, 1)" stroke-width="1.5"></path><path d="M1595.21 385.63L1555.36 552.62" stroke="rgba(51, 159, 222, 1)" stroke-width="1.5"></path><path d="M1595.21 385.63L1441.03 561.68" stroke="rgba(51, 159, 222, 1)" stroke-width="1.5"></path><path d="M1595.21 385.63L1421.11 200.12" stroke="rgba(51, 159, 222, 1)" stroke-width="1.5"></path><path d="M1555.36 552.62L1555.36 552.62" stroke="rgba(51, 159, 222, 1)" stroke-width="1.5"></path><path d="M1555.36 552.62L1599.84 675.05" stroke="rgba(51, 159, 222, 1)" stroke-width="1.5"></path><path d="M1555.36 552.62L1269.28 512.96" stroke="rgba(51, 159, 222, 1)" stroke-width="1.5"></path><path d="M1599.84 675.05L1599.84 675.05" stroke="rgba(51, 159, 222, 1)" stroke-width="1.5"></path><path d="M1599.84 675.05L1595.21 385.63" stroke="rgba(51, 159, 222, 1)" stroke-width="1.5"></path><path d="M1599.84 675.05L1424.25 406.46" stroke="rgba(51, 159, 222, 1)" stroke-width="1.5"></path><path d="M1599.84 675.05L1265.88 665.63" stroke="rgba(51, 159, 222, 1)" stroke-width="1.5"></path><circle r="5" cx="-104.8" cy="358.09" fill="rgba(51, 159, 222, 1)"></circle><circle r="5" cx="-71.73" cy="534.77" fill="rgba(51, 159, 222, 1)"></circle><circle r="5" cx="-86.15" cy="678.62" fill="rgba(51, 159, 222, 1)"></circle><circle r="5" cx="47.57" cy="391.94" fill="rgba(51, 159, 222, 1)"></circle><circle r="5" cx="93.6" cy="509.07" fill="rgba(51, 159, 222, 1)"></circle><circle r="5" cx="109.02" cy="696" fill="rgba(51, 159, 222, 1)"></circle><circle r="5" cx="217.93" cy="344.7" fill="rgba(51, 159, 222, 1)"></circle><circle r="5" cx="193.7" cy="695.84" fill="rgba(51, 159, 222, 1)"></circle><circle r="5" cx="397" cy="360.48" fill="rgba(51, 159, 222, 1)"></circle><circle r="5" cx="370.09" cy="549.22" fill="rgba(51, 159, 222, 1)"></circle><circle r="5" cx="380.24" cy="672.48" fill="rgba(51, 159, 222, 1)"></circle><circle r="5" cx="549.67" cy="402.19" fill="rgba(51, 159, 222, 1)"></circle><circle r="5" cx="535.03" cy="549.77" fill="rgba(51, 159, 222, 1)"></circle><circle r="5" cx="643.4" cy="256.46" fill="rgba(51, 159, 222, 1)"></circle><circle r="5" cx="711.5" cy="380.44" fill="rgba(51, 159, 222, 1)"></circle><circle r="5" cx="663.2" cy="517.71" fill="rgba(51, 159, 222, 1)"></circle><circle r="5" cx="657.9" cy="687.53" fill="rgba(51, 159, 222, 1)"></circle><circle r="5" cx="860.33" cy="87.78" fill="rgba(51, 159, 222, 1)"></circle><circle r="5" cx="796.87" cy="209.97" fill="rgba(51, 159, 222, 1)"></circle><circle r="5" cx="845.91" cy="382.45" fill="rgba(51, 159, 222, 1)"></circle><circle r="5" cx="830.1" cy="513.95" fill="rgba(51, 159, 222, 1)"></circle><circle r="5" cx="816.96" cy="701.37" fill="rgba(51, 159, 222, 1)"></circle><circle r="5" cx="978.53" cy="-52.04" fill="rgba(51, 159, 222, 1)"></circle><circle r="5" cx="1010.76" cy="64.2" fill="rgba(51, 159, 222, 1)"></circle><circle r="5" cx="995.41" cy="215.28" fill="rgba(51, 159, 222, 1)"></circle><circle r="5" cx="989.35" cy="391.91" fill="rgba(51, 159, 222, 1)"></circle><circle r="5" cx="997.87" cy="535.98" fill="rgba(51, 159, 222, 1)"></circle><circle r="5" cx="953.85" cy="651.06" fill="rgba(51, 159, 222, 1)"></circle><circle r="5" cx="1112.15" cy="-70.22" fill="rgba(51, 159, 222, 1)"></circle><circle r="5" cx="1097.73" cy="64.96" fill="rgba(51, 159, 222, 1)"></circle><circle r="5" cx="1122.23" cy="238.15" fill="rgba(51, 159, 222, 1)"></circle><circle r="5" cx="1112" cy="660.16" fill="rgba(51, 159, 222, 1)"></circle><circle r="5" cx="1240.66" cy="-76.16" fill="rgba(51, 159, 222, 1)"></circle><circle r="5" cx="1261.12" cy="77.74" fill="rgba(51, 159, 222, 1)"></circle><circle r="5" cx="1254.48" cy="192.03" fill="rgba(51, 159, 222, 1)"></circle><circle r="5" cx="1269.28" cy="512.96" fill="rgba(51, 159, 222, 1)"></circle><circle r="5" cx="1265.88" cy="665.63" fill="rgba(51, 159, 222, 1)"></circle><circle r="5" cx="1455.52" cy="-51.28" fill="rgba(51, 159, 222, 1)"></circle><circle r="5" cx="1424.75" cy="88.76" fill="rgba(51, 159, 222, 1)"></circle><circle r="5" cx="1421.11" cy="200.12" fill="rgba(51, 159, 222, 1)"></circle><circle r="5" cx="1424.25" cy="406.46" fill="rgba(51, 159, 222, 1)"></circle><circle r="5" cx="1441.03" cy="561.68" fill="rgba(51, 159, 222, 1)"></circle><circle r="5" cx="1458.2" cy="639.84" fill="rgba(51, 159, 222, 1)"></circle><circle r="5" cx="1545.06" cy="-98.04" fill="rgba(51, 159, 222, 1)"></circle><circle r="5" cx="1586.58" cy="102.21" fill="rgba(51, 159, 222, 1)"></circle><circle r="5" cx="1574.18" cy="222.12" fill="rgba(51, 159, 222, 1)"></circle><circle r="5" cx="1595.21" cy="385.63" fill="rgba(51, 159, 222, 1)"></circle><circle r="5" cx="1555.36" cy="552.62" fill="rgba(51, 159, 222, 1)"></circle><circle r="5" cx="1599.84" cy="675.05" fill="rgba(51, 159, 222, 1)"></circle><path d="M221.37 647.89L221.37 647.89" stroke="hsl(202, 72.4%, 50%)" stroke-width="1.5"></path><path d="M221.37 647.89L223.53 528.19" stroke="hsl(202, 72.4%, 50%)" stroke-width="1.5"></path><path d="M221.37 647.89L100.38 699.78" stroke="hsl(202, 72.4%, 50%)" stroke-width="1.5"></path><path d="M221.37 647.89L370.64 671.07" stroke="hsl(202, 72.4%, 50%)" stroke-width="1.5"></path><path d="M221.37 647.89L63.72 517.94" stroke="hsl(202, 72.4%, 50%)" stroke-width="1.5"></path><path d="M846.82 694.88L846.82 694.88" stroke="hsl(202, 72.4%, 50%)" stroke-width="1.5"></path><path d="M846.82 694.88L987.94 657.69" stroke="hsl(202, 72.4%, 50%)" stroke-width="1.5"></path><path d="M846.82 694.88L681.1 703.83" stroke="hsl(202, 72.4%, 50%)" stroke-width="1.5"></path><path d="M846.82 694.88L858.64 515.56" stroke="hsl(202, 72.4%, 50%)" stroke-width="1.5"></path><path d="M846.82 694.88L956.29 533.54" stroke="hsl(202, 72.4%, 50%)" stroke-width="1.5"></path><path d="M846.82 694.88L707.18 533.57" stroke="hsl(202, 72.4%, 50%)" stroke-width="1.5"></path><path d="M846.82 694.88L1118.33 686.07" stroke="hsl(202, 72.4%, 50%)" stroke-width="1.5"></path><path d="M987.94 657.69L987.94 657.69" stroke="hsl(202, 72.4%, 50%)" stroke-width="1.5"></path><path d="M987.94 657.69L956.29 533.54" stroke="hsl(202, 72.4%, 50%)" stroke-width="1.5"></path><path d="M987.94 657.69L1118.33 686.07" stroke="hsl(202, 72.4%, 50%)" stroke-width="1.5"></path><path d="M1113.12 212.88L1113.12 212.88" stroke="hsl(202, 72.4%, 50%)" stroke-width="1.5"></path><path d="M1113.12 212.88L1121.2 369.23" stroke="hsl(202, 72.4%, 50%)" stroke-width="1.5"></path><path d="M1113.12 212.88L1290.42 207.57" stroke="hsl(202, 72.4%, 50%)" stroke-width="1.5"></path><path d="M1113.12 212.88L964.77 343.6" stroke="hsl(202, 72.4%, 50%)" stroke-width="1.5"></path><path d="M1113.12 212.88L1267.55 83.76" stroke="hsl(202, 72.4%, 50%)" stroke-width="1.5"></path><path d="M1113.12 212.88L1258.89 365.09" stroke="hsl(202, 72.4%, 50%)" stroke-width="1.5"></path><path d="M1113.12 212.88L1392.74 211.97" stroke="hsl(202, 72.4%, 50%)" stroke-width="1.5"></path><path d="M1118.33 686.07L1118.33 686.07" stroke="hsl(202, 72.4%, 50%)" stroke-width="1.5"></path><path d="M1118.33 686.07L1248.38 657.94" stroke="hsl(202, 72.4%, 50%)" stroke-width="1.5"></path><path d="M1118.33 686.07L1109.51 497.32" stroke="hsl(202, 72.4%, 50%)" stroke-width="1.5"></path><path d="M1410.94 51.64L1410.94 51.64" stroke="hsl(202, 72.4%, 50%)" stroke-width="1.5"></path><path d="M1410.94 51.64L1442.48 -76.52" stroke="hsl(202, 72.4%, 50%)" stroke-width="1.5"></path><path d="M1410.94 51.64L1541.21 78.36" stroke="hsl(202, 72.4%, 50%)" stroke-width="1.5"></path><path d="M1410.94 51.64L1267.55 83.76" stroke="hsl(202, 72.4%, 50%)" stroke-width="1.5"></path><path d="M1410.94 51.64L1392.74 211.97" stroke="hsl(202, 72.4%, 50%)" stroke-width="1.5"></path><path d="M1410.94 51.64L1309.66 -98.9" stroke="hsl(202, 72.4%, 50%)" stroke-width="1.5"></path><path d="M1410.94 51.64L1569.04 -37.6" stroke="hsl(202, 72.4%, 50%)" stroke-width="1.5"></path><path d="M1392.74 211.97L1392.74 211.97" stroke="hsl(202, 72.4%, 50%)" stroke-width="1.5"></path><path d="M1392.74 211.97L1290.42 207.57" stroke="hsl(202, 72.4%, 50%)" stroke-width="1.5"></path><path d="M1392.74 211.97L1267.55 83.76" stroke="hsl(202, 72.4%, 50%)" stroke-width="1.5"></path><path d="M1392.74 211.97L1583.85 227.97" stroke="hsl(202, 72.4%, 50%)" stroke-width="1.5"></path><path d="M1541.21 78.36L1541.21 78.36" stroke="hsl(202, 72.4%, 50%)" stroke-width="1.5"></path><path d="M1541.21 78.36L1569.04 -37.6" stroke="hsl(202, 72.4%, 50%)" stroke-width="1.5"></path><path d="M1541.21 78.36L1583.85 227.97" stroke="hsl(202, 72.4%, 50%)" stroke-width="1.5"></path><path d="M1541.21 78.36L1442.48 -76.52" stroke="hsl(202, 72.4%, 50%)" stroke-width="1.5"></path><path d="M1541.21 78.36L1392.74 211.97" stroke="hsl(202, 72.4%, 50%)" stroke-width="1.5"></path><path d="M1541.21 78.36L1267.55 83.76" stroke="hsl(202, 72.4%, 50%)" stroke-width="1.5"></path><path d="M1588.31 375.03L1588.31 375.03" stroke="hsl(202, 72.4%, 50%)" stroke-width="1.5"></path><path d="M1588.31 375.03L1554.16 507.57" stroke="hsl(202, 72.4%, 50%)" stroke-width="1.5"></path><path d="M1588.31 375.03L1583.85 227.97" stroke="hsl(202, 72.4%, 50%)" stroke-width="1.5"></path><path d="M1588.31 375.03L1434.56 409.96" stroke="hsl(202, 72.4%, 50%)" stroke-width="1.5"></path><path d="M1558.88 676.91L1558.88 676.91" stroke="hsl(202, 72.4%, 50%)" stroke-width="1.5"></path><path d="M1558.88 676.91L1554.16 507.57" stroke="hsl(202, 72.4%, 50%)" stroke-width="1.5"></path><path d="M1558.88 676.91L1388.39 643.65" stroke="hsl(202, 72.4%, 50%)" stroke-width="1.5"></path><path d="M1558.88 676.91L1451.74 526.82" stroke="hsl(202, 72.4%, 50%)" stroke-width="1.5"></path><path d="M1558.88 676.91L1434.56 409.96" stroke="hsl(202, 72.4%, 50%)" stroke-width="1.5"></path><path d="M1558.88 676.91L1588.31 375.03" stroke="hsl(202, 72.4%, 50%)" stroke-width="1.5"></path><path d="M-58.47 502.32L-58.47 502.32" stroke="hsl(202, 72.4%, 50%)" stroke-width="1.5"></path><path d="M-58.47 502.32L63.72 517.94" stroke="hsl(202, 72.4%, 50%)" stroke-width="1.5"></path><path d="M-58.47 502.32L-84.63 685.45" stroke="hsl(202, 72.4%, 50%)" stroke-width="1.5"></path><path d="M-58.47 502.32L100.38 699.78" stroke="hsl(202, 72.4%, 50%)" stroke-width="1.5"></path><path d="M-84.63 685.45L-84.63 685.45" stroke="hsl(202, 72.4%, 50%)" stroke-width="1.5"></path><path d="M-84.63 685.45L100.38 699.78" stroke="hsl(202, 72.4%, 50%)" stroke-width="1.5"></path><path d="M63.72 517.94L63.72 517.94" stroke="hsl(202, 72.4%, 50%)" stroke-width="1.5"></path><path d="M63.72 517.94L223.53 528.19" stroke="hsl(202, 72.4%, 50%)" stroke-width="1.5"></path><path d="M63.72 517.94L100.38 699.78" stroke="hsl(202, 72.4%, 50%)" stroke-width="1.5"></path><path d="M63.72 517.94L-84.63 685.45" stroke="hsl(202, 72.4%, 50%)" stroke-width="1.5"></path><path d="M100.38 699.78L100.38 699.78" stroke="hsl(202, 72.4%, 50%)" stroke-width="1.5"></path><path d="M100.38 699.78L223.53 528.19" stroke="hsl(202, 72.4%, 50%)" stroke-width="1.5"></path><path d="M223.53 528.19L223.53 528.19" stroke="hsl(202, 72.4%, 50%)" stroke-width="1.5"></path><path d="M223.53 528.19L370.64 671.07" stroke="hsl(202, 72.4%, 50%)" stroke-width="1.5"></path><path d="M370.64 671.07L370.64 671.07" stroke="hsl(202, 72.4%, 50%)" stroke-width="1.5"></path><path d="M370.64 671.07L489.69 695.03" stroke="hsl(202, 72.4%, 50%)" stroke-width="1.5"></path><path d="M550.53 509.49L550.53 509.49" stroke="hsl(202, 72.4%, 50%)" stroke-width="1.5"></path><path d="M550.53 509.49L707.18 533.57" stroke="hsl(202, 72.4%, 50%)" stroke-width="1.5"></path><path d="M489.69 695.03L489.69 695.03" stroke="hsl(202, 72.4%, 50%)" stroke-width="1.5"></path><path d="M489.69 695.03L681.1 703.83" stroke="hsl(202, 72.4%, 50%)" stroke-width="1.5"></path><path d="M489.69 695.03L550.53 509.49" stroke="hsl(202, 72.4%, 50%)" stroke-width="1.5"></path><path d="M656.78 375.3L656.78 375.3" stroke="hsl(202, 72.4%, 50%)" stroke-width="1.5"></path><path d="M656.78 375.3L821.22 378.25" stroke="hsl(202, 72.4%, 50%)" stroke-width="1.5"></path><path d="M656.78 375.3L707.18 533.57" stroke="hsl(202, 72.4%, 50%)" stroke-width="1.5"></path><path d="M656.78 375.3L550.53 509.49" stroke="hsl(202, 72.4%, 50%)" stroke-width="1.5"></path><path d="M656.78 375.3L858.64 515.56" stroke="hsl(202, 72.4%, 50%)" stroke-width="1.5"></path><path d="M656.78 375.3L964.77 343.6" stroke="hsl(202, 72.4%, 50%)" stroke-width="1.5"></path><path d="M707.18 533.57L707.18 533.57" stroke="hsl(202, 72.4%, 50%)" stroke-width="1.5"></path><path d="M707.18 533.57L858.64 515.56" stroke="hsl(202, 72.4%, 50%)" stroke-width="1.5"></path><path d="M707.18 533.57L681.1 703.83" stroke="hsl(202, 72.4%, 50%)" stroke-width="1.5"></path><path d="M707.18 533.57L821.22 378.25" stroke="hsl(202, 72.4%, 50%)" stroke-width="1.5"></path><path d="M681.1 703.83L681.1 703.83" stroke="hsl(202, 72.4%, 50%)" stroke-width="1.5"></path><path d="M681.1 703.83L550.53 509.49" stroke="hsl(202, 72.4%, 50%)" stroke-width="1.5"></path><path d="M821.22 378.25L821.22 378.25" stroke="hsl(202, 72.4%, 50%)" stroke-width="1.5"></path><path d="M821.22 378.25L858.64 515.56" stroke="hsl(202, 72.4%, 50%)" stroke-width="1.5"></path><path d="M821.22 378.25L964.77 343.6" stroke="hsl(202, 72.4%, 50%)" stroke-width="1.5"></path><path d="M858.64 515.56L858.64 515.56" stroke="hsl(202, 72.4%, 50%)" stroke-width="1.5"></path><path d="M858.64 515.56L956.29 533.54" stroke="hsl(202, 72.4%, 50%)" stroke-width="1.5"></path><path d="M858.64 515.56L987.94 657.69" stroke="hsl(202, 72.4%, 50%)" stroke-width="1.5"></path><path d="M964.77 343.6L964.77 343.6" stroke="hsl(202, 72.4%, 50%)" stroke-width="1.5"></path><path d="M964.77 343.6L1121.2 369.23" stroke="hsl(202, 72.4%, 50%)" stroke-width="1.5"></path><path d="M964.77 343.6L956.29 533.54" stroke="hsl(202, 72.4%, 50%)" stroke-width="1.5"></path><path d="M964.77 343.6L858.64 515.56" stroke="hsl(202, 72.4%, 50%)" stroke-width="1.5"></path><path d="M956.29 533.54L956.29 533.54" stroke="hsl(202, 72.4%, 50%)" stroke-width="1.5"></path><path d="M956.29 533.54L1109.51 497.32" stroke="hsl(202, 72.4%, 50%)" stroke-width="1.5"></path><path d="M1121.2 369.23L1121.2 369.23" stroke="hsl(202, 72.4%, 50%)" stroke-width="1.5"></path><path d="M1121.2 369.23L1109.51 497.32" stroke="hsl(202, 72.4%, 50%)" stroke-width="1.5"></path><path d="M1121.2 369.23L1258.89 365.09" stroke="hsl(202, 72.4%, 50%)" stroke-width="1.5"></path><path d="M1109.51 497.32L1109.51 497.32" stroke="hsl(202, 72.4%, 50%)" stroke-width="1.5"></path><path d="M1309.66 -98.9L1309.66 -98.9" stroke="hsl(202, 72.4%, 50%)" stroke-width="1.5"></path><path d="M1309.66 -98.9L1442.48 -76.52" stroke="hsl(202, 72.4%, 50%)" stroke-width="1.5"></path><path d="M1309.66 -98.9L1267.55 83.76" stroke="hsl(202, 72.4%, 50%)" stroke-width="1.5"></path><path d="M1309.66 -98.9L1569.04 -37.6" stroke="hsl(202, 72.4%, 50%)" stroke-width="1.5"></path><path d="M1267.55 83.76L1267.55 83.76" stroke="hsl(202, 72.4%, 50%)" stroke-width="1.5"></path><path d="M1267.55 83.76L1290.42 207.57" stroke="hsl(202, 72.4%, 50%)" stroke-width="1.5"></path><path d="M1290.42 207.57L1290.42 207.57" stroke="hsl(202, 72.4%, 50%)" stroke-width="1.5"></path><path d="M1290.42 207.57L1258.89 365.09" stroke="hsl(202, 72.4%, 50%)" stroke-width="1.5"></path><path d="M1290.42 207.57L1410.94 51.64" stroke="hsl(202, 72.4%, 50%)" stroke-width="1.5"></path><path d="M1258.89 365.09L1258.89 365.09" stroke="hsl(202, 72.4%, 50%)" stroke-width="1.5"></path><path d="M1258.89 365.09L1265.27 529.06" stroke="hsl(202, 72.4%, 50%)" stroke-width="1.5"></path><path d="M1258.89 365.09L1434.56 409.96" stroke="hsl(202, 72.4%, 50%)" stroke-width="1.5"></path><path d="M1258.89 365.09L1109.51 497.32" stroke="hsl(202, 72.4%, 50%)" stroke-width="1.5"></path><path d="M1265.27 529.06L1265.27 529.06" stroke="hsl(202, 72.4%, 50%)" stroke-width="1.5"></path><path d="M1265.27 529.06L1248.38 657.94" stroke="hsl(202, 72.4%, 50%)" stroke-width="1.5"></path><path d="M1265.27 529.06L1109.51 497.32" stroke="hsl(202, 72.4%, 50%)" stroke-width="1.5"></path><path d="M1248.38 657.94L1248.38 657.94" stroke="hsl(202, 72.4%, 50%)" stroke-width="1.5"></path><path d="M1248.38 657.94L1388.39 643.65" stroke="hsl(202, 72.4%, 50%)" stroke-width="1.5"></path><path d="M1248.38 657.94L1109.51 497.32" stroke="hsl(202, 72.4%, 50%)" stroke-width="1.5"></path><path d="M1248.38 657.94L1451.74 526.82" stroke="hsl(202, 72.4%, 50%)" stroke-width="1.5"></path><path d="M1248.38 657.94L987.94 657.69" stroke="hsl(202, 72.4%, 50%)" stroke-width="1.5"></path><path d="M1442.48 -76.52L1442.48 -76.52" stroke="hsl(202, 72.4%, 50%)" stroke-width="1.5"></path><path d="M1442.48 -76.52L1569.04 -37.6" stroke="hsl(202, 72.4%, 50%)" stroke-width="1.5"></path><path d="M1434.56 409.96L1434.56 409.96" stroke="hsl(202, 72.4%, 50%)" stroke-width="1.5"></path><path d="M1434.56 409.96L1451.74 526.82" stroke="hsl(202, 72.4%, 50%)" stroke-width="1.5"></path><path d="M1434.56 409.96L1554.16 507.57" stroke="hsl(202, 72.4%, 50%)" stroke-width="1.5"></path><path d="M1434.56 409.96L1392.74 211.97" stroke="hsl(202, 72.4%, 50%)" stroke-width="1.5"></path><path d="M1434.56 409.96L1265.27 529.06" stroke="hsl(202, 72.4%, 50%)" stroke-width="1.5"></path><path d="M1451.74 526.82L1451.74 526.82" stroke="hsl(202, 72.4%, 50%)" stroke-width="1.5"></path><path d="M1451.74 526.82L1554.16 507.57" stroke="hsl(202, 72.4%, 50%)" stroke-width="1.5"></path><path d="M1451.74 526.82L1388.39 643.65" stroke="hsl(202, 72.4%, 50%)" stroke-width="1.5"></path><path d="M1451.74 526.82L1265.27 529.06" stroke="hsl(202, 72.4%, 50%)" stroke-width="1.5"></path><path d="M1451.74 526.82L1588.31 375.03" stroke="hsl(202, 72.4%, 50%)" stroke-width="1.5"></path><path d="M1388.39 643.65L1388.39 643.65" stroke="hsl(202, 72.4%, 50%)" stroke-width="1.5"></path><path d="M1569.04 -37.6L1569.04 -37.6" stroke="hsl(202, 72.4%, 50%)" stroke-width="1.5"></path><path d="M1569.04 -37.6L1583.85 227.97" stroke="hsl(202, 72.4%, 50%)" stroke-width="1.5"></path><path d="M1583.85 227.97L1583.85 227.97" stroke="hsl(202, 72.4%, 50%)" stroke-width="1.5"></path><path d="M1554.16 507.57L1554.16 507.57" stroke="hsl(202, 72.4%, 50%)" stroke-width="1.5"></path><circle r="25" cx="221.37" cy="647.89" fill="url(#SvgjsRadialGradient1009)"></circle><circle r="25" cx="846.82" cy="694.88" fill="url(#SvgjsRadialGradient1009)"></circle><circle r="25" cx="987.94" cy="657.69" fill="url(#SvgjsRadialGradient1009)"></circle><circle r="25" cx="1113.12" cy="212.88" fill="url(#SvgjsRadialGradient1009)"></circle><circle r="25" cx="1118.33" cy="686.07" fill="url(#SvgjsRadialGradient1009)"></circle><circle r="25" cx="1410.94" cy="51.64" fill="url(#SvgjsRadialGradient1009)"></circle><circle r="25" cx="1392.74" cy="211.97" fill="url(#SvgjsRadialGradient1009)"></circle><circle r="25" cx="1541.21" cy="78.36" fill="url(#SvgjsRadialGradient1009)"></circle><circle r="25" cx="1588.31" cy="375.03" fill="url(#SvgjsRadialGradient1009)"></circle><circle r="25" cx="1558.88" cy="676.91" fill="url(#SvgjsRadialGradient1009)"></circle><circle r="5" cx="-58.47" cy="502.32" fill="#8dbad4"></circle><circle r="5" cx="-84.63" cy="685.45" fill="#8dbad4"></circle><circle r="5" cx="63.72" cy="517.94" fill="#8dbad4"></circle><circle r="5" cx="100.38" cy="699.78" fill="#8dbad4"></circle><circle r="5" cx="223.53" cy="528.19" fill="#8dbad4"></circle><circle r="5" cx="370.64" cy="671.07" fill="#8dbad4"></circle><circle r="5" cx="550.53" cy="509.49" fill="#8dbad4"></circle><circle r="5" cx="489.69" cy="695.03" fill="#8dbad4"></circle><circle r="5" cx="656.78" cy="375.3" fill="#8dbad4"></circle><circle r="5" cx="707.18" cy="533.57" fill="#8dbad4"></circle><circle r="5" cx="681.1" cy="703.83" fill="#8dbad4"></circle><circle r="5" cx="821.22" cy="378.25" fill="#8dbad4"></circle><circle r="5" cx="858.64" cy="515.56" fill="#8dbad4"></circle><circle r="5" cx="964.77" cy="343.6" fill="#8dbad4"></circle><circle r="5" cx="956.29" cy="533.54" fill="#8dbad4"></circle><circle r="5" cx="1121.2" cy="369.23" fill="#8dbad4"></circle><circle r="5" cx="1109.51" cy="497.32" fill="#8dbad4"></circle><circle r="5" cx="1309.66" cy="-98.9" fill="#8dbad4"></circle><circle r="5" cx="1267.55" cy="83.76" fill="#8dbad4"></circle><circle r="5" cx="1290.42" cy="207.57" fill="#8dbad4"></circle><circle r="5" cx="1258.89" cy="365.09" fill="#8dbad4"></circle><circle r="5" cx="1265.27" cy="529.06" fill="#8dbad4"></circle><circle r="5" cx="1248.38" cy="657.94" fill="#8dbad4"></circle><circle r="5" cx="1442.48" cy="-76.52" fill="#8dbad4"></circle><circle r="5" cx="1434.56" cy="409.96" fill="#8dbad4"></circle><circle r="5" cx="1451.74" cy="526.82" fill="#8dbad4"></circle><circle r="5" cx="1388.39" cy="643.65" fill="#8dbad4"></circle><circle r="5" cx="1569.04" cy="-37.6" fill="#8dbad4"></circle><circle r="5" cx="1583.85" cy="227.97" fill="#8dbad4"></circle><circle r="5" cx="1554.16" cy="507.57" fill="#8dbad4"></circle></g><defs><mask id="SvgjsMask1008"><rect width="1440" height="560" fill="#ffffff"></rect></mask><radialGradient id="SvgjsRadialGradient1009"><stop stop-color="#ffffff" offset="0.1"></stop><stop stop-color="rgba(27, 117, 169, 1)" offset="0.2"></stop><stop stop-color="rgba(27, 117, 169, 0)" offset="1"></stop></radialGradient></defs></svg>